<?xml version="1.0" standalone="no"?>
<!DOCTYPE svg PUBLIC "-//W3C//DTD SVG 20010904//EN"
 "http://www.w3.org/TR/2001/REC-SVG-20010904/DTD/svg10.dtd">
<svg version="1.0" xmlns="http://www.w3.org/2000/svg"
 width="327.000000pt" height="400.000000pt" viewBox="0 0 327.000000 400.000000"
 preserveAspectRatio="xMidYMid meet">

<g transform="translate(0.000000,400.000000) scale(0.100000,-0.100000)"
fill="#000000" stroke="none">
<path d="M0 2000 l0 -2000 726 0 c626 0 771 3 702 14 -7 1 -19 5 -27 10 -11 7
-11 10 0 17 11 7 11 9 -2 9 -9 0 -20 7 -23 16 -10 26 -7 29 9 8 8 -10 15 -16
15 -12 0 4 -11 19 -25 34 -14 15 -25 35 -25 45 0 33 23 69 44 70 12 0 15 3 8
6 -20 8 14 42 36 36 9 -2 26 3 37 12 20 16 20 16 -2 6 -41 -21 -38 -11 6 14
48 28 65 33 35 11 -17 -13 -14 -13 21 -1 22 8 51 14 65 15 14 0 32 5 40 11 12
8 11 9 -5 6 -44 -11 -100 -18 -94 -13 3 3 23 9 45 14 23 5 38 14 36 21 -1 7
11 3 28 -9 17 -12 57 -25 90 -30 58 -8 61 -8 90 22 23 23 30 39 30 69 0 28 4
39 15 39 8 0 15 -9 15 -19 0 -23 11 -31 54 -42 25 -5 26 -7 8 -8 -32 -1 -61
16 -72 42 -6 16 -9 18 -9 5 -1 -22 45 -58 75 -58 28 0 57 -28 50 -47 -3 -8 -6
-17 -6 -19 0 -2 -7 -4 -15 -4 -8 0 -12 -6 -9 -14 8 -21 -86 -116 -150 -153
-31 -18 -54 -28 -51 -23 3 6 3 10 0 10 -10 0 -65 -30 -65 -36 0 -2 9 0 19 6
11 5 23 10 28 10 4 -1 -3 -7 -16 -14 -13 -7 -33 -11 -45 -8 -12 3 -18 1 -14
-3 11 -11 -11 -35 -31 -34 -12 0 -12 2 4 10 17 8 16 9 -7 6 -34 -5 -36 0 -5
13 12 5 49 25 82 45 33 20 74 42 90 50 39 17 145 122 145 142 0 8 -23 -10 -52
-41 -28 -31 -57 -56 -65 -56 -7 0 -13 -4 -13 -9 0 -9 -18 -20 -112 -67 -25
-13 -49 -28 -53 -34 -3 -5 -15 -10 -26 -10 -10 0 -19 -4 -19 -10 0 -5 -7 -10
-16 -10 -10 0 -14 -6 -11 -14 6 -14 -18 -30 -31 -22 -4 2 -13 -2 -20 -10 -10
-11 121 -14 863 -14 l875 0 0 2000 0 2000 -1635 0 -1635 0 0 -2000z m2437
1965 c0 -17 -13 -20 -21 -6 -4 5 0 12 6 14 7 3 13 6 14 6 0 1 1 -6 1 -14z m27
-41 c3 -8 2 -12 -4 -9 -6 3 -10 10 -10 16 0 14 7 11 14 -7z m-134 -19 c-14
-16 -25 -21 -16 -6 4 5 0 12 -6 14 -7 3 -2 6 11 6 20 1 21 -1 11 -14z m167
-22 c0 -17 -5 -16 -23 1 -12 13 -12 15 4 13 10 0 19 -7 19 -14z m11 -48 c-3
-3 -9 2 -12 12 -6 14 -5 15 5 6 7 -7 10 -15 7 -18z m-301 -187 c-3 -8 -6 -5
-6 6 -1 11 2 17 5 13 3 -3 4 -12 1 -19z m20 -10 c-3 -7 -5 -2 -5 12 0 14 2 19
5 13 2 -7 2 -19 0 -25z m0 -60 c-3 -7 -5 -2 -5 12 0 14 2 19 5 13 2 -7 2 -19
0 -25z m-20 0 c-3 -8 -6 -5 -6 6 -1 11 2 17 5 13 3 -3 4 -12 1 -19z m323 -55
c0 -15 -2 -16 -10 -3 -6 10 -10 11 -10 3 0 -7 -5 -13 -11 -13 -8 0 -8 5 1 15
17 20 30 19 30 -2z m-15 -42 c-9 -8 -36 -10 -30 -2 2 4 11 8 20 8 8 0 13 -3
10 -6z m-1066 -37 c-6 -8 -18 -14 -25 -14 -8 0 -14 -5 -14 -11 0 -5 -5 -7 -12
-3 -9 6 -9 9 0 12 7 2 10 7 7 12 -3 4 4 6 15 3 12 -3 20 -2 19 3 -3 18 1 25
11 19 8 -5 7 -11 -1 -21z m1141 -4 c-13 -9 -13 -10 0 -10 13 0 13 -1 0 -10 -8
-5 -19 -10 -25 -10 -5 0 -3 5 5 10 8 5 11 10 7 10 -5 0 -5 5 -2 10 3 6 12 10
18 10 7 0 6 -4 -3 -10z m-129 -23 c-10 -9 -11 -8 -5 6 3 10 9 15 12 12 3 -3 0
-11 -7 -18z m224 13 c4 -6 -7 -10 -25 -10 -18 0 -29 4 -25 10 3 6 15 10 25 10
10 0 22 -4 25 -10z m-411 -37 c3 -10 6 -22 6 -28 1 -5 11 -21 23 -35 l22 -25
-27 24 c-16 14 -26 26 -23 29 9 9 -16 42 -27 36 -7 -4 -8 -3 -4 4 10 17 24 15
30 -5z m571 7 c13 -6 15 -9 5 -9 -8 0 -22 4 -30 9 -18 12 -2 12 25 0z m-405
-56 c0 -8 -19 -13 -24 -6 -3 5 1 9 9 9 8 0 15 -2 15 -3z m-40 -45 c-7 -11 -14
-18 -17 -15 -3 3 0 12 7 21 18 21 23 19 10 -6z m588 -3 c-10 -7 -14 -17 -10
-21 4 -5 2 -5 -5 -1 -16 9 -5 36 16 36 14 -1 14 -2 -1 -14z m-1666 -106 c28
-57 24 -70 -21 -70 -49 0 -97 -32 -138 -94 -29 -42 -33 -56 -33 -115 0 -55 4
-73 25 -104 20 -28 32 -37 54 -37 25 0 28 -3 24 -22 -7 -28 -109 -125 -139
-132 -62 -16 -108 47 -120 162 -6 55 5 137 26 187 37 93 52 116 110 173 73 73
109 93 160 89 29 -2 38 -8 52 -37z m771 -189 c29 -11 61 -54 71 -93 l6 -27
-62 5 c-60 5 -65 3 -109 -30 -27 -20 -55 -53 -68 -78 -41 -85 -20 -197 46
-247 l28 -21 -35 -30 c-89 -77 -176 -111 -247 -97 -33 6 -49 17 -73 50 l-32
42 5 110 c4 99 8 116 36 171 54 105 179 208 301 248 26 8 108 6 133 -3z m-738
-410 c63 -28 116 -80 142 -141 13 -30 29 -65 35 -78 24 -48 -31 -102 -103
-102 -47 0 -109 48 -141 108 -13 24 -29 54 -35 66 -20 36 -91 96 -114 96 -26
0 -73 -24 -121 -62 -47 -36 -49 -23 -5 33 30 40 89 80 147 100 37 12 147 1
195 -20z m211 -347 c-7 -66 -33 -144 -50 -144 -4 0 -23 -17 -42 -38 -47 -54
-98 -69 -174 -54 -79 17 -127 38 -140 62 -12 22 -1 27 18 8 7 -7 38 -12 70
-13 111 0 253 100 279 198 9 32 18 47 29 47 15 0 16 -9 10 -66z m-349 -16 c-3
-8 -6 -5 -6 6 -1 11 2 17 5 13 3 -3 4 -12 1 -19z m201 -60 c-6 -16 -67 -52
-75 -44 -10 10 39 56 60 56 10 0 17 -5 15 -12z m1519 6 c-3 -3 -12 -4 -19 -1
-8 3 -5 6 6 6 11 1 17 -2 13 -5z m-197 -18 c0 -2 -11 -6 -25 -8 -14 -3 -25 -1
-25 3 0 5 11 9 25 9 14 0 25 -2 25 -4z m188 -3 c-10 -2 -28 -2 -40 0 -13 2 -5
4 17 4 22 1 32 -1 23 -4z m82 -3 c0 -12 -8 -12 -35 0 -18 8 -17 9 8 9 15 1 27
-3 27 -9z m-350 -10 c-8 -5 -19 -10 -25 -10 -5 0 -3 5 5 10 8 5 20 10 25 10 6
0 3 -5 -5 -10z m520 -30 c-12 -8 -12 -10 -1 -10 8 0 12 -3 8 -6 -9 -9 -28 6
-22 17 4 5 12 9 18 9 7 0 6 -4 -3 -10z m45 -30 c-3 -5 -1 -10 6 -10 7 0 10 -3
6 -6 -9 -9 -28 6 -22 17 4 5 8 9 11 9 3 0 2 -4 -1 -10z m32 -35 c0 -8 -4 -12
-9 -9 -5 3 -6 10 -3 15 9 13 12 11 12 -6z m-127 -55 c0 -5 -5 -10 -11 -10 -5
0 -7 5 -4 10 3 6 8 10 11 10 2 0 4 -4 4 -10z m-120 -30 c0 -5 -8 -10 -17 -10
-15 0 -16 2 -3 10 19 12 20 12 20 0z m-44 -27 c-2 -9 -9 -19 -17 -21 -11 -3
-11 -1 1 7 13 10 13 11 0 11 -13 0 -13 1 0 10 19 12 19 13 16 -7z m-2366 -33
c-20 -13 -33 -13 -25 0 3 6 14 10 23 10 15 0 15 -2 2 -10z m-68 -15 c0 -5 -5
-10 -11 -11 -8 -2 -7 -1 0 3 8 4 7 8 -2 15 -11 8 -11 9 -1 6 8 -2 14 -8 14
-13z m2233 -19 c-16 -7 -29 -17 -27 -21 2 -5 -2 -11 -10 -13 -9 -2 -8 0 2 7
13 9 13 11 1 11 -11 0 -9 4 5 15 10 8 28 14 39 14 15 0 12 -3 -10 -13z m-135
-50 c0 -2 -7 -7 -16 -10 -8 -3 -12 -2 -9 4 6 10 25 14 25 6z m-2255 -26 c-3
-5 -12 -10 -18 -10 -7 0 -6 4 3 10 19 12 23 12 15 0z m2187 -7 c-6 -2 -10 -9
-7 -13 3 -5 0 -12 -6 -16 -8 -4 -9 -3 -5 4 8 14 5 15 -19 6 -13 -6 -14 -9 -3
-16 9 -6 5 -7 -11 -3 -16 5 -21 4 -17 -4 4 -6 5 -11 2 -11 -3 0 -7 4 -11 10
-6 9 60 49 80 49 6 0 4 -3 -3 -6z m-989 -65 c12 -6 64 -14 115 -17 l94 -6 13
-37 c7 -20 46 -90 88 -155 41 -65 85 -135 96 -157 32 -57 99 -221 106 -258 36
-203 -4 -285 -163 -327 -67 -19 -222 18 -247 59 -4 7 -13 7 -26 0 -15 -8 -19
-7 -19 4 0 9 -6 13 -14 10 -8 -3 -17 0 -22 7 -5 8 -3 10 7 4 8 -5 6 1 -5 13
-10 12 -24 19 -30 15 -6 -4 -5 1 2 10 12 14 11 16 -7 12 -12 -2 -19 0 -17 4 3
4 -1 17 -9 27 -15 18 -15 18 -9 -1 5 -19 5 -19 -6 -2 -9 13 -9 22 0 32 9 11 7
12 -9 8 -13 -3 -21 -1 -21 6 0 7 5 9 10 6 6 -3 10 -1 10 5 0 6 -10 15 -22 21
l-23 10 23 -5 c12 -2 22 0 22 5 0 5 -7 9 -15 9 -27 0 -30 1 -38 16 -5 8 -5 20
0 27 12 15 11 37 -1 36 -10 -1 -26 21 -26 36 0 6 5 3 10 -5 7 -11 9 -7 5 15
-9 56 -13 90 -16 135 l-2 45 -7 -50 c-4 -35 -6 -16 -6 65 0 81 2 100 6 65 6
-42 7 -45 9 -15 1 19 4 59 8 89 4 43 3 52 -7 46 -10 -6 -12 -4 -7 9 4 10 7 22
7 27 0 6 4 8 9 5 5 -4 7 3 4 14 -4 14 0 20 11 20 9 0 15 3 15 8 -4 23 4 43 31
80 32 45 40 48 73 30z m-1331 -30 c-5 -5 -18 -8 -28 -5 -15 4 -14 5 4 6 15 1
21 5 16 13 -5 7 -3 8 5 3 8 -5 9 -11 3 -17z m2138 -2 c0 -2 -9 -6 -20 -9 -11
-3 -18 -1 -14 4 5 9 34 13 34 5z m-66 -27 c-32 -13 -50 -9 -24 5 14 7 29 10
34 8 5 -3 1 -9 -10 -13z m-334 -10 c0 -8 -29 -22 -49 -23 -8 -1 -16 6 -18 14
-3 9 -1 11 4 5 7 -10 19 -11 41 -6 4 2 -2 6 -13 11 -17 8 -16 8 8 7 15 -1 27
-4 27 -8z m245 -9 c3 -5 -1 -10 -10 -10 -9 0 -13 5 -10 10 3 6 8 10 10 10 2 0
7 -4 10 -10z m-155 -10 c0 -5 -2 -10 -4 -10 -3 0 -8 5 -11 10 -3 6 -1 10 4 10
6 0 11 -4 11 -10z m100 0 c0 -5 -7 -10 -15 -10 -8 0 -15 5 -15 10 0 6 7 10 15
10 8 0 15 -4 15 -10z m453 -7 c-12 -2 -27 -11 -35 -20 -12 -15 -11 -15 9 -3
17 11 39 12 103 4 66 -8 78 -7 64 3 -10 7 -14 13 -8 13 15 -1 44 -26 37 -33
-3 -4 3 -7 14 -7 28 0 65 -43 69 -81 5 -37 14 -51 15 -23 1 14 3 13 8 -6 4
-14 5 -50 1 -80 l-6 -55 -7 40 c-3 22 -9 56 -12 75 -4 19 -18 49 -31 65 -22
28 -24 28 -24 8 0 -12 6 -26 14 -30 17 -10 26 -55 35 -178 4 -55 8 -80 9 -55
1 25 7 52 13 60 7 11 9 -5 7 -57 -2 -43 0 -69 6 -66 5 4 7 -1 3 -11 -4 -10 -7
-22 -7 -27 0 -6 -4 -8 -9 -4 -5 3 -12 1 -16 -5 -3 -5 -1 -10 5 -10 17 0 -14
-51 -52 -86 -43 -41 -147 -89 -144 -67 2 8 13 23 25 33 l23 17 -27 41 -28 42
-81 0 c-44 0 -88 5 -96 11 -11 8 5 9 60 5 45 -3 81 -1 90 5 12 8 11 9 -5 5
-11 -3 -51 -1 -90 4 l-70 9 74 -4 c87 -5 111 5 110 43 l-1 27 -9 -30 c-7 -26
-8 -24 -5 13 2 23 0 42 -4 42 -16 0 -31 62 -19 76 10 12 6 18 -12 16 -11 -1
-50 143 -40 146 5 2 7 10 4 18 -5 13 -7 13 -14 2 -6 -9 -9 -6 -9 10 0 13 4 20
10 17 16 -10 11 1 -7 16 -15 12 -16 12 -8 -1 6 -12 5 -12 -5 -3 -14 13 -4 37
12 27 7 -4 8 -2 4 4 -9 15 33 52 58 51 20 -2 20 -2 -1 -6z m97 -3 c20 -6 21
-8 5 -8 -11 0 -31 4 -45 8 -20 6 -21 8 -5 8 11 0 31 -4 45 -8z m-2600 -60 c0
-5 -5 -10 -11 -10 -5 0 -7 5 -4 10 3 6 8 10 11 10 2 0 4 -4 4 -10z m1155 -40
c-3 -5 -12 -10 -18 -10 -7 0 -6 4 3 10 19 12 23 12 15 0z m-565 -26 c0 -2 -28
-3 -62 -3 -46 1 -55 3 -33 8 29 6 95 3 95 -5z m-650 -4 c0 -5 -5 -10 -11 -10
-5 0 -7 5 -4 10 3 6 8 10 11 10 2 0 4 -4 4 -10z m280 -20 c0 -5 -8 -10 -17
-10 -15 0 -16 2 -3 10 19 12 20 12 20 0z m317 4 c-3 -3 -12 -4 -19 -1 -8 3 -5
6 6 6 11 1 17 -2 13 -5z m-615 -13 c8 11 9 11 6 1 -4 -16 -22 -18 -25 -2 -1 7
0 6 4 -1 4 -8 8 -7 15 2z m163 -11 c3 -5 1 -10 -4 -10 -6 0 -11 5 -11 10 0 6
2 10 4 10 3 0 8 -4 11 -10z m-75 -30 c-8 -5 -19 -10 -25 -10 -5 0 -3 5 5 10 8
5 20 10 25 10 6 0 3 -5 -5 -10z m2056 -135 c1 -8 -2 -15 -6 -15 -5 0 -8 9 -7
20 1 21 10 18 13 -5z m224 -105 c13 -9 13 -10 0 -10 -13 0 -13 -1 0 -10 8 -5
11 -10 5 -10 -5 0 -17 5 -25 10 -13 9 -13 10 0 10 13 0 13 1 0 10 -8 5 -10 10
-5 10 6 0 17 -5 25 -10z m65 -40 c-3 -5 -10 -10 -16 -10 -5 0 -9 5 -9 10 0 6
7 10 16 10 8 0 12 -4 9 -10z m163 -184 c-10 -7 -15 -16 -12 -19 3 -3 -29 -29
-71 -57 -42 -28 -79 -49 -82 -46 -4 3 0 6 7 6 7 0 11 2 8 5 -8 9 -38 -6 -33
-16 6 -8 -62 -56 -93 -65 -9 -3 -6 2 8 10 l25 16 -30 -6 c-24 -5 -17 2 33 35
34 22 66 41 70 41 4 0 43 25 87 55 44 29 85 54 90 54 6 0 2 -6 -7 -13z m-323
-194 c-18 -4 -18 -5 -3 -11 15 -5 13 -8 -7 -18 -14 -6 -23 -7 -19 -2 8 13 1
12 -56 -11 -28 -11 -54 -20 -58 -20 -14 1 133 68 148 68 8 0 6 -3 -5 -6z
m-167 -76 c-10 -7 -15 -16 -12 -19 3 -3 -4 -11 -16 -17 -15 -8 -20 -8 -16 -1
8 13 0 13 -29 2 -11 -5 -20 -14 -20 -22 0 -8 -8 -13 -19 -11 -11 2 -15 -1 -11
-7 4 -7 0 -8 -10 -5 -9 4 -15 2 -13 -4 2 -5 -9 -21 -24 -35 -16 -14 -28 -21
-28 -16 0 6 -7 3 -16 -5 -26 -26 -27 -18 -2 13 14 18 29 28 40 25 9 -3 19 0
23 6 3 5 1 10 -5 10 -23 0 16 27 90 63 82 39 94 43 68 23z m-228 -176 c13 -8
12 -10 -3 -10 -11 0 -15 -4 -11 -12 5 -7 3 -8 -6 -3 -9 6 -10 1 -5 -16 5 -19
4 -21 -4 -9 -9 12 -11 13 -11 1 0 -8 -2 -12 -5 -9 -7 6 15 68 23 68 4 0 14 -5
22 -10z m-310 -132 c0 -21 -21 -20 -28 2 -3 8 0 10 8 5 7 -4 4 5 -6 21 l-18
29 22 -19 c12 -11 22 -28 22 -38z"/>
<path d="M2690 1570 c6 -11 18 -20 27 -20 14 0 14 2 -2 20 -10 11 -22 20 -27
20 -5 0 -4 -9 2 -20z"/>
<path d="M2776 1561 c-4 -5 -2 -12 3 -15 5 -4 12 -2 15 3 4 5 2 12 -3 15 -5 4
-12 2 -15 -3z"/>
<path d="M2811 1567 c2 -1 15 -11 29 -22 l25 -20 -19 23 c-11 12 -24 22 -29
22 -6 0 -8 -1 -6 -3z"/>
<path d="M2738 1544 c-4 -3 0 -17 8 -32 8 -15 14 -32 14 -38 0 -6 7 -17 15
-24 14 -11 14 -10 5 15 -6 16 -9 34 -6 41 5 13 -27 48 -36 38z"/>
<path d="M2601 1414 c0 -11 3 -14 6 -6 3 7 2 16 -1 19 -3 4 -6 -2 -5 -13z"/>
<path d="M2640 1281 c0 -6 4 -13 10 -16 6 -3 7 1 4 9 -7 18 -14 21 -14 7z"/>
<path d="M2850 1174 c-6 -14 -10 -29 -10 -33 0 -5 -7 -14 -15 -21 -8 -7 -15
-18 -15 -24 0 -21 48 49 52 77 6 34 0 35 -12 1z"/>
<path d="M2855 1119 c-4 -6 -5 -12 -2 -15 2 -3 7 2 10 11 7 17 1 20 -8 4z"/>
<path d="M2824 1069 c-10 -12 -45 -33 -77 -47 -32 -14 -56 -27 -54 -29 9 -8
114 47 136 71 14 14 22 26 19 26 -3 0 -13 -10 -24 -21z"/>
<path d="M2559 899 l-24 -20 28 17 c15 9 27 18 27 20 0 8 -8 4 -31 -17z"/>
<path d="M2504 864 c-18 -14 -18 -15 4 -4 12 6 22 13 22 15 0 8 -5 6 -26 -11z"/>
<path d="M2418 814 c-38 -20 -36 -28 2 -9 17 9 30 18 30 20 0 7 -1 6 -32 -11z"/>
<path d="M1974 320 c0 -13 4 -16 10 -10 7 7 7 13 0 20 -6 6 -10 3 -10 -10z"/>
<path d="M1486 195 c-20 -14 -40 -25 -44 -25 -4 0 -15 -12 -26 -26 -13 -19
-15 -29 -7 -37 10 -10 16 0 13 24 -1 4 11 9 26 12 15 3 39 17 54 31 15 15 36
26 48 26 11 0 20 5 20 10 0 19 -47 10 -84 -15z"/>
<path d="M1894 199 c-10 -12 -43 -35 -71 -51 -29 -17 -53 -32 -53 -35 0 -10
101 52 126 78 15 16 25 29 22 29 -3 0 -13 -10 -24 -21z"/>
<path d="M1364 165 c-3 -8 -4 -20 -2 -27 3 -7 7 -1 10 15 6 29 1 36 -8 12z"/>
</g>
</svg>
